:SAMPLES-PER-SECOND 30
:FULLY-SPECIFIED
:DEGREES
313
root  -7.18064 34.9298 -28.3299 -171.392 57.8969 -179.943
RightUpLeg  -3.37079 -16.6414 -0.223783
RightLeg  0.0185889 -3.80731 0.244093
RightFoot  6.61264 0.0520418 -0.307352
RightToes  -23.5427 -0.102332 -0.197674
Spine  -2.40671 2.45876 -2.74563
Spine1  -4.61978 4.57401 -4.68611
HEad  -68.7335 -15.3215 2.07357
LeftShoulder1  -1.94126e-019 -3.10601e-018 -2.51263e-017
LeftArm  17.6244 16.1722 -71.8422
LeftForeArm  39.8677 -71.3365 -30.5108
LeftHand  -0.366391 -4.77927 4.47898
RightShoulder  -4.96962e-017 0 -2.36833e-017
RightArm  -3.04049 32.6245 71.3757
RightForeArm  54.8017 72.1598 29.4203
RightHand  0.0277743 -6.30455 -6.93058
LeftUpLeg  -3.47259 7.67627 0.619521
LeftLeg  1.39822 20.7766 -0.810614
LeftFoot  5.44265 -0.0971469 2.20983
LeftToes  -12.1115 2.25955e-006 -3.67304e-008
314
root  -7.11339 34.9341 -28.3983 -171.244 58.0566 -179.912
RightUpLeg  -3.30134 -16.7202 -0.259152
RightLeg  -0.106793 -3.57877 0.237266
RightFoot  6.62633 0.0508167 -0.289715
RightToes  -23.3268 -0.102187 -0.197642
Spine  -2.44203 2.52087 -2.71561
Spine1  -4.67311 4.65073 -4.62514
HEad  -70.7912 -16.8847 1.95045
LeftShoulder1  -1.94126e-019 -3.10601e-018 -2.51263e-017
LeftArm  16.0684 18.6492 -70.9378
LeftForeArm  40.7277 -71.5025 -30.721
LeftHand  -0.37959 -4.56854 4.71502
RightShoulder  -4.96962e-017 0 -2.36833e-017
RightArm  -3.08037 29.7643 71.3784
RightForeArm  84.4012 79.3631 56.2014
RightHand  0.00323137 -5.64813 -10.5847
LeftUpLeg  -3.41779 7.55639 0.596784
LeftLeg  1.37795 21.033 -0.827444
LeftFoot  5.41753 -0.0975083 2.22232
LeftToes  -12.1287 2.25955e-006 -3.67304e-008
315
root  -7.08664 34.9371 -28.4619 -171.245 58.1903 179.982
RightUpLeg  -3.31907 -16.5664 -0.373849
RightLeg  -0.114811 -3.64871 0.242413
RightFoot  6.65367 0.0518614 -0.304744
RightToes  -23.3916 -0.102052 -0.197697
Spine  -2.5954 2.24164 -2.64348
Spine1  -4.9519 4.0501 -4.45721
HEad  -71.2863 -18.7931 1.95172
LeftShoulder1  -1.94126e-019 -3.10601e-018 -2.51263e-017
LeftArm  14.0571 20.5732 -70.786
LeftForeArm  37.3418 -68.9312 -26.1656
LeftHand  -0.377691 -4.2263 4.839
RightShoulder  -4.96962e-017 0 -2.36833e-017
RightArm  -1.39748 31.4506 73.556
RightForeArm  77.2824 78.0917 47.1789
RightHand  -0.191835 -4.19375 -17.6112
LeftUpLeg  -3.55583 7.56427 0.476312
LeftLeg  1.72844 21.1062 -0.703873
LeftFoot  5.2904 -0.0930734 2.17594
LeftToes  -12.095 2.25955e-006 -3.67304e-008
316
root  -7.08838 34.9302 -28.5149 -171.441 58.6959 179.965
RightUpLeg  -3.24474 -15.8481 -0.536131
RightLeg  0.0664999 -3.864 0.244499
RightFoot  6.6237 0.05365 -0.330627
RightToes  -23.5859 -0.101926 -0.197825
Spine  -2.69299 1.9706 -2.48991
Spine1  -5.12823 3.47223 -4.11034
HEad  -70.072 -21.25 1.54958
LeftShoulder1  -1.94126e-019 -3.10601e-018 -2.51263e-017
LeftArm  12.5475 21.5383 -71.1652
LeftForeArm  31.8416 -64.8649 -21.289
LeftHand  -0.37055 -3.03178 5.34447
RightShoulder  -4.96962e-017 0 -2.36833e-017
RightArm  1.58553 36.8961 76.7334
RightForeArm  62.9257 69.022 22.4344
RightHand  -0.521622 -2.95307 -24.4661
LeftUpLeg  -3.47542 7.84863 0.386227
LeftLeg  2.18154 21.31 -0.54562
LeftFoot  4.96839 -0.0852141 2.06789
LeftToes  -11.8636 2.25955e-006 -3.67304e-008
317
root  -7.09151 34.9246 -28.5588 -171.64 59.4258 -179.893
RightUpLeg  -3.08042 -15.1654 -0.653359
RightLeg  0.26947 -3.84328 0.229592
RightFoot  6.60743 0.0536796 -0.331591
RightToes  -23.6705 -0.101803 -0.198014
Spine  -2.74641 1.87594 -2.38636
Spine1  -5.21718 3.23805 -3.87908
HEad  -68.431 -23.6468 1.15501
LeftShoulder1  -1.94126e-019 -3.10601e-018 -2.51263e-017
LeftArm  13.3236 21.7628 -70.7483
LeftForeArm  27.7262 -62.1189 -18.9608
LeftHand  -0.378491 -2.06199 6.09
RightShoulder  -4.96962e-017 0 -2.36833e-017
RightArm  4.49228 43.5598 80.8992
RightForeArm  63.7885 54.7633 10.8984
RightHand  -0.802611 -1.6217 -24.4634
LeftUpLeg  -3.2798 7.97273 0.378221
LeftLeg  2.73262 21.8924 -0.354311
LeftFoot  4.61482 -0.0786517 1.98041
LeftToes  -11.7649 2.25955e-006 -3.67304e-008
318
root  -7.08986 34.9254 -28.5924 -171.799 59.9492 -179.82
RightUpLeg  -2.91182 -14.9289 -0.755799
RightLeg  0.302496 -3.56445 0.210892
RightFoot  6.6577 0.0518185 -0.305749
RightToes  -23.6875 -0.101681 -0.19825
Spine  -2.85976 1.9979 -2.39315
Spine1  -5.43911 3.4609 -3.90638
HEad  -66.8161 -25.8096 1.08442
LeftShoulder1  -1.94126e-019 -3.10601e-018 -2.51263e-017
LeftArm  15.1835 21.7756 -69.8418
LeftForeArm  26.7972 -61.9574 -18.9209
LeftHand  -0.349494 -1.96019 5.70777
RightShoulder  -4.96962e-017 0 -2.36833e-017
RightArm  6.5841 48.5589 84.3907
RightForeArm  58.982 42.512 6.65644
RightHand  -0.65897 -0.50218 -15.6326
LeftUpLeg  -3.32171 7.95237 0.351719
LeftLeg  3.51442 22.4245 -0.0643197
LeftFoot  4.2757 -0.0718315 1.88919
LeftToes  -11.6509 2.25955e-006 -3.67304e-008
319
root  -7.08692 34.9344 -28.6235 -171.859 60.0734 -179.782
RightUpLeg  -2.76561 -14.9758 -0.808244
RightLeg  0.21627 -3.42694 0.207908
RightFoot  6.74217 0.0509975 -0.294993
RightToes  -23.5897 -0.101555 -0.198519
Spine  -2.90069 2.30864 -2.55464
Spine1  -5.52296 4.08041 -4.23138
HEad  -66.2933 -28.0036 2.01836
LeftShoulder1  -1.94126e-019 -3.10601e-018 -2.51263e-017
LeftArm  17.6225 21.2805 -68.6425
LeftForeArm  29.9538 -63.8571 -20.4216
LeftHand  -0.33974 -2.79795 5.04344
RightShoulder  -4.96962e-017 0 -2.36833e-017
RightArm  4.42458 49.4867 83.2112
RightForeArm  50.5329 39.0886 6.12292
RightHand  -0.535307 2.16339 -8.41163
LeftUpLeg  -3.49506 7.71545 0.329309
LeftLeg  4.18486 22.7628 0.194089
LeftFoot  4.04049 -0.0665136 1.82148
LeftToes  -11.3912 2.25955e-006 -3.67304e-008
320
root  -7.1003 34.9415 -28.646 -171.828 59.7133 -179.83
RightUpLeg  -2.7929 -15.2033 -0.831946
RightLeg  0.206254 -3.57232 0.217348
RightFoot  6.80157 0.0523366 -0.315328
RightToes  -23.6599 -0.101423 -0.198809
Spine  -2.84916 2.45875 -2.7721
Spine1  -5.41494 4.38148 -4.65824
HEad  -66.9339 -29.7967 3.94636
LeftShoulder1  -1.94126e-019 -3.10601e-018 -2.51263e-017
LeftArm  18.931 20.8624 -67.5979
LeftForeArm  34.8932 -66.6514 -23.0917
LeftHand  -0.343277 -3.71567 4.63878
RightShoulder  -4.96962e-017 0 -2.36833e-017
RightArm  3.46148 46.8975 79.1194
RightForeArm  51.5752 46.32 8.26329
RightHand  -0.531103 1.01022 -9.7521
LeftUpLeg  -3.88643 7.25383 0.277624
LeftLeg  4.78146 22.8427 0.426301
LeftFoot  3.94386 -0.0633717 1.78763
LeftToes  -11.6339 2.25955e-006 -3.67304e-008
321
root  -7.11841 34.9411 -28.6629 -171.885 59.035 -179.964
RightUpLeg  -2.83759 -15.388 -0.886667
RightLeg  0.354176 -4.02837 0.234695
RightFoot  6.67027 0.0550347 -0.355307
RightToes  -23.5439 -0.101282 -0.199105
Spine  -2.60083 2.39169 -2.84692
Spine1  -4.9278 4.27554 -4.79964
HEad  -69.1817 -30.8286 5.77444
LeftShoulder1  -1.94126e-019 -3.10601e-018 -2.51263e-017
LeftArm  18.3353 20.8698 -67.2998
LeftForeArm  38.2737 -69.2723 -26.5965
LeftHand  -0.332103 -3.92035 4.41036
RightShoulder  -4.96962e-017 0 -2.36833e-017
RightArm  1.23782 43.4688 75.0744
RightForeArm  50.4737 58.8435 14.1524
RightHand  -0.393623 -1.45089 -11.4882
LeftUpLeg  -4.23188 6.87722 0.217795
LeftLeg  5.18989 22.5513 0.577792
LeftFoot  3.74552 -0.0557068 1.68338
LeftToes  -11.0092 2.25955e-006 -3.67304e-008
322
root  -7.14613 34.9241 -28.6645 -171.922 58.1901 179.904
RightUpLeg  -2.90241 -15.743 -0.916316
RightLeg  0.50348 -4.48263 0.249474
RightFoot  6.46712 0.0568034 -0.382216
RightToes  -23.7132 -0.101126 -0.199394
Spine  -2.32874 2.17631 -2.81403
Spine1  -4.42093 3.91548 -4.74098
HEad  -71.5501 -30.7805 6.43295
LeftShoulder1  -1.94126e-019 -3.10601e-018 -2.51263e-017
LeftArm  16.61 21.2594 -67.5587
LeftForeArm  39.2526 -70.9716 -29.7778
LeftHand  -0.312098 -3.55918 4.30503
RightShoulder  -4.96962e-017 0 -2.36833e-017
RightArm  -1.47473 40.0787 72.654
RightForeArm  59.6997 71.7567 27.6342
RightHand  -0.346624 -1.92953 -11.4369
LeftUpLeg  -4.56331 6.68744 0.175569
LeftLeg  5.41359 21.9613 0.647104
LeftFoot  3.65077 -0.0497064 1.60478
LeftToes  -11.2176 2.25955e-006 -3.67304e-008
